<?xml version="1.0" encoding="utf-8"?>
<!-- Generator: Adobe Illustrator 16.0.0, SVG Export Plug-In . SVG Version: 6.00 Build 0)  -->
<!DOCTYPE svg PUBLIC "-//W3C//DTD SVG 1.1//EN" "http://www.w3.org/Graphics/SVG/1.1/DTD/svg11.dtd">
<svg version="1.1" id="Calque_1" xmlns="http://www.w3.org/2000/svg" xmlns:xlink="http://www.w3.org/1999/xlink" x="0px" y="0px"
	 width="28px" height="18px" viewBox="0 0 28 18" enable-background="new 0 0 28 18" xml:space="preserve">
<g>
	<g>
		<g>
			<defs>
				<rect id="SVGID_1_" width="28" height="18"/>
			</defs>
			<clipPath id="SVGID_2_">
				<use xlink:href="#SVGID_1_"  overflow="visible"/>
			</clipPath>
			<path clip-path="url(#SVGID_2_)" fill="#CE2C39" d="M25.123,0.185H2.876c-1.496,0-2.685,1.143-2.685,2.582v12.467
				c0,1.438,1.189,2.582,2.685,2.582h22.247c1.496,0,2.686-1.146,2.686-2.582V2.767C27.809,1.328,26.619,0.185,25.123,0.185
				 M26.926,15.234c0,0.959-0.806,1.731-1.803,1.731H2.876c-0.997,0-1.802-0.772-1.802-1.731V4.021l11.507,6.934
				c0.422,0.259,0.921,0.406,1.419,0.406s0.997-0.147,1.419-0.406l11.507-6.934V15.234z M26.926,2.988l-11.967,7.229
				c-0.575,0.332-1.343,0.332-1.918,0L1.074,2.988V2.729c0-0.959,0.805-1.734,1.802-1.734h22.247c0.997,0,1.803,0.775,1.803,1.734
				V2.988z"/>
		</g>
	</g>
	<g>
		<g>
			<defs>
				<rect id="SVGID_3_" width="28" height="18"/>
			</defs>
			<clipPath id="SVGID_4_">
				<use xlink:href="#SVGID_3_"  overflow="visible"/>
			</clipPath>
			<path clip-path="url(#SVGID_4_)" fill="none" stroke="#CE2C39" stroke-miterlimit="10" d="M25.123,0.185H2.876
				c-1.496,0-2.685,1.143-2.685,2.582v12.467c0,1.438,1.189,2.582,2.685,2.582h22.247c1.496,0,2.686-1.146,2.686-2.582V2.767
				C27.809,1.328,26.619,0.185,25.123,0.185z M26.926,15.234c0,0.959-0.806,1.731-1.803,1.731H2.876
				c-0.997,0-1.802-0.772-1.802-1.731V4.021l11.507,6.934c0.422,0.259,0.921,0.406,1.419,0.406s0.997-0.147,1.419-0.406
				l11.507-6.934V15.234z M26.926,2.988l-11.967,7.229c-0.575,0.332-1.343,0.332-1.918,0L1.074,2.988V2.729
				c0-0.959,0.805-1.734,1.802-1.734h22.247c0.997,0,1.803,0.775,1.803,1.734V2.988z"/>
		</g>
	</g>
</g>
</svg>
