<?xml version="1.0" encoding="utf-8"?>
<!-- Generator: Adobe Illustrator 16.0.0, SVG Export Plug-In . SVG Version: 6.00 Build 0)  -->
<!DOCTYPE svg PUBLIC "-//W3C//DTD SVG 1.1//EN" "http://www.w3.org/Graphics/SVG/1.1/DTD/svg11.dtd">
<svg version="1.1" id="Calque_1" xmlns="http://www.w3.org/2000/svg" xmlns:xlink="http://www.w3.org/1999/xlink" x="0px" y="0px"
	 width="20px" height="26px" viewBox="0 0 20 26" enable-background="new 0 0 20 26" xml:space="preserve">
<g>
	<g>
		<g>
			<defs>
				<rect id="SVGID_1_" width="20" height="26"/>
			</defs>
			<clipPath id="SVGID_2_">
				<use xlink:href="#SVGID_1_"  overflow="visible"/>
			</clipPath>
			<path clip-path="url(#SVGID_2_)" fill="#CE2C39" d="M14.779,14.038c-0.156-0.147-0.305-0.288-0.454-0.431
				c1.644-1.396,2.702-3.561,2.702-5.99c0-4.2-3.151-7.617-7.026-7.617C6.125,0,2.972,3.417,2.972,7.617
				c0,2.432,1.061,4.595,2.703,5.99c-0.149,0.143-0.297,0.283-0.455,0.431C3.018,16.091,0,18.904,0,25.396V26h20v-0.604
				C20.001,18.904,16.982,16.091,14.779,14.038 M4.083,7.617c0-3.536,2.655-6.413,5.917-6.413c3.262,0,5.917,2.876,5.917,6.413
				c0,3.536-2.653,6.413-5.917,6.413C6.737,14.03,4.083,11.153,4.083,7.617 M1.121,24.796c0.174-5.511,2.745-7.905,4.825-9.845
				c0.15-0.141,0.298-0.278,0.442-0.415c1.12,0.581,2.359,0.892,3.617,0.901c1.249-0.012,2.488-0.32,3.606-0.901
				c0.146,0.137,0.293,0.274,0.443,0.415c2.077,1.938,4.648,4.334,4.823,9.845H1.121z"/>
		</g>
	</g>
</g>
</svg>
