<?xml version="1.0" encoding="utf-8"?>
<!-- Generator: Adobe Illustrator 16.0.0, SVG Export Plug-In . SVG Version: 6.00 Build 0)  -->
<!DOCTYPE svg PUBLIC "-//W3C//DTD SVG 1.1//EN" "http://www.w3.org/Graphics/SVG/1.1/DTD/svg11.dtd">
<svg version="1.1" id="Calque_1" xmlns="http://www.w3.org/2000/svg" xmlns:xlink="http://www.w3.org/1999/xlink" x="0px" y="0px"
	 width="99.211px" height="99.214px" viewBox="0 0 99.211 99.214" enable-background="new 0 0 99.211 99.214" xml:space="preserve">
<rect fill="#0060A8" width="99.211" height="99.214"/>
<polygon fill="#FFFFFF" points="11.033,13.747 16.512,13.747 16.512,15.898 11.033,15.898 11.033,20.852 8.723,20.852 8.723,8.707 
	17.403,8.707 17.403,10.858 11.033,10.858 "/>
<g>
	<path fill="#FFFFFF" d="M27.431,16.354c0,2.695-2.048,4.708-4.55,4.708s-4.533-2.013-4.533-4.708c0-2.695,2.031-4.742,4.533-4.742
		S27.431,13.659,27.431,16.354 M25.104,16.372c0-1.557-0.999-2.643-2.223-2.643c-1.225,0-2.223,1.086-2.223,2.643
		c0,1.523,0.998,2.573,2.223,2.573C24.105,18.945,25.104,17.895,25.104,16.372"/>
	<path fill="#FFFFFF" d="M37.37,20.852H35.06v-5.267c0-0.525-0.158-1.786-1.679-1.786c-1.033,0-1.751,0.771-1.751,1.786v5.267h-2.31
		v-9.013h2.205v0.876c0.578-0.682,1.366-1.103,2.327-1.103c2.118,0,3.519,1.593,3.519,3.973V20.852z"/>
	<path fill="#FFFFFF" d="M48.465,20.852H46.26V19.89c-0.717,0.735-1.661,1.155-2.765,1.155c-2.344,0-4.288-2.03-4.288-4.69
		c0-2.678,1.944-4.708,4.288-4.708c1.05,0,1.961,0.386,2.661,1.05V7.832h2.31V20.852z M43.845,13.781
		c-1.277,0-2.309,1.12-2.309,2.59c0,1.435,1.032,2.538,2.309,2.538c1.277,0,2.311-1.138,2.311-2.538
		C46.156,14.937,45.122,13.781,43.845,13.781"/>
	<path fill="#FFFFFF" d="M56.848,20.012c-0.595,0.63-1.505,1.015-2.765,1.015c-1.906,0-3.658-0.963-3.658-2.923
		c0-2.03,1.697-2.555,3.693-2.729c1.506-0.14,2.571-0.315,2.571-1.05c0-0.472-0.612-0.857-1.644-0.857
		c-0.823,0-1.768,0.368-1.979,1.137h-2.31c0.227-1.714,1.873-2.992,4.236-2.992c3.656,0,3.938,2.362,3.938,3.08v4.69
		c0,0.437,0.14,1.12,0.262,1.47h-2.117C56.97,20.624,56.9,20.345,56.848,20.012 M56.777,16.512
		c-0.489,0.315-1.241,0.472-2.187,0.578c-1.139,0.122-1.838,0.367-1.838,1.032c0,0.507,0.595,0.857,1.522,0.857
		c1.381,0,2.502-0.472,2.502-1.627V16.512z"/>
	<path fill="#FFFFFF" d="M65.563,20.834c-2.643,0.28-4.043-1.312-4.043-3.78v-3.168h-1.084v-2.047h1.084V9.546h2.31v2.293h1.627
		v2.047H63.83v3.185c0,1.26,0.578,1.733,1.733,1.663V20.834z"/>
</g>
<path fill="#FFFFFF" d="M69.554,10.859h-2.312V8.706h2.312V10.859z M69.554,20.852h-2.312v-9.013h2.312V20.852z"/>
<g>
	<path fill="#FFFFFF" d="M80.578,16.354c0,2.695-2.048,4.708-4.549,4.708c-2.503,0-4.534-2.013-4.534-4.708
		c0-2.695,2.031-4.742,4.534-4.742C78.53,11.612,80.578,13.659,80.578,16.354 M78.251,16.372c0-1.557-0.999-2.643-2.222-2.643
		c-1.226,0-2.224,1.086-2.224,2.643c0,1.523,0.998,2.573,2.224,2.573C77.252,18.945,78.251,17.895,78.251,16.372"/>
	<path fill="#FFFFFF" d="M90.519,20.852h-2.312v-5.267c0-0.525-0.157-1.786-1.679-1.786c-1.033,0-1.752,0.771-1.752,1.786v5.267
		h-2.309v-9.013h2.205v0.876c0.577-0.682,1.365-1.103,2.326-1.103c2.118,0,3.52,1.593,3.52,3.973V20.852z"/>
	<path fill="#FFFFFF" d="M17.386,37.04H15.18v-0.963c-0.716,0.735-1.661,1.155-2.765,1.155c-2.344,0-4.288-2.03-4.288-4.689
		c0-2.678,1.944-4.708,4.288-4.708c1.051,0,1.961,0.385,2.661,1.05v-4.865h2.31V37.04z M12.765,29.969
		c-1.277,0-2.31,1.121-2.31,2.59c0,1.435,1.033,2.538,2.31,2.538c1.277,0,2.311-1.138,2.311-2.538
		C15.076,31.124,14.042,29.969,12.765,29.969"/>
	<path fill="#FFFFFF" d="M21.673,33.434c0.297,1.102,1.172,1.785,2.258,1.785c0.77,0,1.522-0.332,1.908-1.05h2.467
		c-0.525,1.838-2.117,3.08-4.357,3.08c-2.538,0-4.621-2.1-4.621-4.708c0-2.607,2.083-4.742,4.621-4.742
		c2.66,0,4.864,2.065,4.532,5.635H21.673z M26.189,31.544c-0.28-1.05-1.156-1.715-2.258-1.715c-1.05,0-1.889,0.665-2.222,1.715
		H26.189z"/>
</g>
<polygon fill="#FFFFFF" points="11.033,46.996 16.512,46.996 16.512,49.149 11.033,49.149 11.033,54.102 8.723,54.102 8.723,41.956 
	17.403,41.956 17.403,44.108 11.033,44.108 "/>
<g>
	<path fill="#FFFFFF" d="M23.809,47.154c-0.928-0.106-1.699,0-2.223,0.56c-0.49,0.508-0.578,1.242-0.578,1.96v4.427h-2.31v-9.014
		h2.205v0.894c0.735-0.911,1.82-1.243,2.906-1.068V47.154z"/>
	<path fill="#FFFFFF" d="M31.297,53.262c-0.595,0.63-1.504,1.016-2.766,1.016c-1.906,0-3.656-0.963-3.656-2.923
		c0-2.03,1.697-2.555,3.692-2.731c1.506-0.139,2.573-0.313,2.573-1.049c0-0.472-0.613-0.857-1.646-0.857
		c-0.821,0-1.766,0.367-1.977,1.137h-2.31c0.227-1.715,1.873-2.993,4.236-2.993c3.656,0,3.936,2.363,3.936,3.08v4.691
		c0,0.437,0.142,1.119,0.264,1.47h-2.118C31.42,53.874,31.35,53.594,31.297,53.262 M31.227,49.761
		c-0.489,0.316-1.241,0.473-2.186,0.578c-1.138,0.123-1.838,0.368-1.838,1.033c0,0.507,0.595,0.856,1.522,0.856
		c1.382,0,2.502-0.472,2.502-1.627V49.761z"/>
	<path fill="#FFFFFF" d="M43.934,54.102h-2.311v-5.268c0-0.524-0.158-1.785-1.679-1.785c-1.033,0-1.751,0.77-1.751,1.785v5.268
		h-2.309v-9.013h2.204v0.875c0.578-0.682,1.366-1.102,2.327-1.102c2.118,0,3.519,1.592,3.519,3.972V54.102z"/>
	<path fill="#FFFFFF" d="M50.425,54.311c-2.712,0-4.655-2.1-4.655-4.706c0-2.608,1.943-4.743,4.655-4.743
		c2.169,0,3.816,1.225,4.341,3.255h-2.469c-0.316-0.612-1.033-1.137-1.873-1.137c-1.277,0-2.31,1.189-2.31,2.642
		c0,1.418,1.033,2.59,2.31,2.59c0.858,0,1.593-0.525,1.89-1.155h2.469C54.259,53.104,52.613,54.311,50.425,54.311"/>
	<path fill="#FFFFFF" d="M58.421,50.496c0.299,1.102,1.174,1.785,2.258,1.785c0.771,0,1.523-0.332,1.908-1.05h2.467
		c-0.523,1.838-2.117,3.08-4.356,3.08c-2.538,0-4.62-2.1-4.62-4.708c0-2.607,2.082-4.742,4.62-4.742
		c2.659,0,4.866,2.065,4.532,5.635H58.421z M62.937,48.606c-0.279-1.05-1.155-1.715-2.258-1.715c-1.051,0-1.89,0.665-2.222,1.715
		H62.937z"/>
</g>
</svg>
